
<svg width="17px" height="22px" viewBox="0 0 17 22" version="1.1" xmlns="http://www.w3.org/2000/svg" xmlns:xlink="http://www.w3.org/1999/xlink">
    <g id="AcmeList" stroke="none" stroke-width="1" fill="none" fill-rule="evenodd">
        <g id="Overview" transform="translate(-30.000000, -132.000000)" stroke="#080808" stroke-width="0.75">
            <g id="Group-3" transform="translate(30.000000, 132.000000)">
                <rect id="Rectangle" x="0.375" y="0.375" width="16.25" height="21.25" rx="2"></rect>
                <line x1="8.4176219" y1="5.5" x2="13.7413198" y2="5.43924044" id="Path-3" stroke-linecap="round"></line>
                <line x1="8.4176219" y1="11.5" x2="13.7413198" y2="11.4392404" id="Path-3" stroke-linecap="round"></line>
                <path d="M3.35246995,5.43924044 L4.41273719,6.40901071 C4.45221214,6.44511635 4.51311148,6.44375961 4.55093931,6.40593178 L6.55195069,4.4049204 L6.55195069,4.4049204" id="Path-2" stroke-linecap="round"></path>
                <path d="M3.35246995,11.4392404 L4.41273719,12.4090107 C4.45221214,12.4451164 4.51311148,12.4437596 4.55093931,12.4059318 L6.55195069,10.4049204 L6.55195069,10.4049204" id="Path-2" stroke-linecap="round"></path>
                <path d="M3.35246995,17.4392404 L4.41273719,18.4090107 C4.45221214,18.4451164 4.51311148,18.4437596 4.55093931,18.4059318 L6.55195069,16.4049204 L6.55195069,16.4049204" id="Path-2" stroke-linecap="round"></path>
                <line x1="8.4176219" y1="17.5" x2="13.7413198" y2="17.4392404" id="Path-3" stroke-linecap="round"></line>
            </g>
        </g>
    </g>
</svg>