<svg width="18px" height="18px" viewBox="0 0 18 18" version="1.1" xmlns="http://www.w3.org/2000/svg" xmlns:xlink="http://www.w3.org/1999/xlink">
    <title>bin</title>
    <g id="bin" stroke="none" fill="none">
        <text id="♺" font-family="HiraginoSans-W1, Hiragino Sans" font-size="13" font-weight="300" fill="currentColor">
            <tspan x="2.5" y="11.6724138">♺</tspan>
        </text>
        <g id="PAPER" stroke-width="1" fill-rule="evenodd" transform="translate(3, 13)" fill="currentColor">
            <path d="M0.945,3.126 C0.93,2.985 0.921,2.823 0.921,2.634 L0.921,2.325 L1.332,2.325 C1.938,2.325 2.307,1.98 2.307,1.419 C2.307,0.87 1.956,0.564 1.326,0.564 L0.651,0.564 C0.444,0.564 0.315,0.561 0.171,0.555 C0.189,0.705 0.195,0.849 0.195,1.026 L0.195,2.646 C0.195,2.838 0.189,2.985 0.171,3.126 L0.945,3.126 Z M0.921,1.713 L0.921,1.176 L1.284,1.176 C1.464,1.176 1.563,1.272 1.563,1.44 C1.563,1.611 1.458,1.713 1.284,1.713 L0.921,1.713 Z" id="Shape" fill-rule="nonzero"></path>
            <path d="M3.186,2.586 L3.957,2.586 L4.014,2.796 C4.041,2.901 4.065,3.006 4.08,3.126 L4.92,3.126 C4.881,3.042 4.869,3.003 4.782,2.754 L4.14,0.903 C4.092,0.765 4.059,0.654 4.041,0.564 L3.096,0.564 C3.081,0.648 3.051,0.756 3,0.903 L2.361,2.754 C2.283,2.982 2.262,3.036 2.223,3.126 L3.063,3.126 C3.078,3.015 3.102,2.901 3.129,2.796 L3.186,2.586 Z M3.789,1.986 L3.351,1.986 L3.57,1.188 L3.789,1.986 Z" id="Shape" fill-rule="nonzero"></path>
            <path d="M5.88,3.126 C5.865,2.985 5.856,2.823 5.856,2.634 L5.856,2.325 L6.267,2.325 C6.873,2.325 7.242,1.98 7.242,1.419 C7.242,0.87 6.891,0.564 6.261,0.564 L5.586,0.564 C5.379,0.564 5.25,0.561 5.106,0.555 C5.124,0.705 5.13,0.849 5.13,1.026 L5.13,2.646 C5.13,2.838 5.124,2.985 5.106,3.126 L5.88,3.126 Z M5.856,1.713 L5.856,1.176 L6.219,1.176 C6.399,1.176 6.498,1.272 6.498,1.44 C6.498,1.611 6.393,1.713 6.219,1.713 L5.856,1.713 Z" id="Shape" fill-rule="nonzero"></path>
            <path d="M8.241,2.502 L8.241,2.127 L8.829,2.127 C9.051,2.127 9.174,2.133 9.318,2.148 L9.318,1.5 C9.147,1.515 9.021,1.521 8.829,1.521 L8.244,1.521 L8.244,1.185 L8.961,1.185 C9.177,1.185 9.3,1.191 9.444,1.206 L9.444,0.543 C9.276,0.558 9.147,0.564 8.961,0.564 L7.971,0.564 C7.71,0.564 7.635,0.564 7.494,0.555 C7.512,0.699 7.518,0.816 7.518,1.026 L7.518,2.67 C7.518,2.898 7.512,3.006 7.494,3.135 C7.638,3.126 7.716,3.126 7.974,3.126 L9,3.126 C9.222,3.126 9.345,3.132 9.483,3.147 L9.483,2.481 C9.339,2.496 9.225,2.502 9.006,2.502 L8.241,2.502 Z" id="Path" fill-rule="nonzero"></path>
            <path d="M10.251,0.564 C10.032,0.564 9.897,0.561 9.765,0.555 C9.783,0.699 9.789,0.822 9.789,1.029 L9.789,2.637 C9.789,2.883 9.783,2.985 9.765,3.126 L10.536,3.126 C10.518,2.979 10.512,2.853 10.512,2.634 L10.512,2.217 L10.728,2.217 C10.809,2.217 10.869,2.232 10.92,2.265 C11.001,2.319 11.022,2.358 11.133,2.664 C11.217,2.898 11.247,2.997 11.271,3.126 L12.105,3.126 C12.027,2.958 11.97,2.826 11.898,2.649 C11.733,2.241 11.733,2.241 11.709,2.196 C11.631,2.04 11.568,1.986 11.418,1.941 C11.55,1.893 11.607,1.863 11.673,1.803 C11.799,1.689 11.865,1.509 11.865,1.284 C11.865,1.068 11.802,0.897 11.682,0.777 C11.541,0.636 11.328,0.564 11.07,0.564 L10.251,0.564 Z M10.512,1.599 L10.512,1.167 L10.89,1.167 C11.034,1.167 11.115,1.242 11.115,1.377 C11.115,1.515 11.031,1.599 10.89,1.599 L10.512,1.599 Z" id="Shape" fill-rule="nonzero"></path>
        </g>
    </g>
</svg>
