<svg width="19px" height="20px" viewBox="0 0 19 20" version="1.1" xmlns="http://www.w3.org/2000/svg" xmlns:xlink="http://www.w3.org/1999/xlink">
    <title>airmail</title>
    <defs>
        <rect id="path-1" x="3" y="0" width="12" height="17"></rect>
        <filter x="-8.3%" y="-5.9%" width="133.3%" height="123.5%" filterUnits="objectBoundingBox" id="filter-2">
            <feOffset dx="1" dy="1" in="SourceAlpha" result="shadowOffsetOuter1"></feOffset>
            <feGaussianBlur stdDeviation="0.5" in="shadowOffsetOuter1" result="shadowBlurOuter1"></feGaussianBlur>
            <feColorMatrix values="0 0 0 0 0   0 0 0 0 0   0 0 0 0 0  0 0 0 0.440013112 0" type="matrix" in="shadowBlurOuter1"></feColorMatrix>
        </filter>
        <rect id="path-3" x="0" y="0" width="11" height="15" rx="0.5"></rect>
        <filter x="-9.1%" y="-6.7%" width="136.4%" height="126.7%" filterUnits="objectBoundingBox" id="filter-4">
            <feOffset dx="1" dy="1" in="SourceAlpha" result="shadowOffsetOuter1"></feOffset>
            <feGaussianBlur stdDeviation="0.5" in="shadowOffsetOuter1" result="shadowBlurOuter1"></feGaussianBlur>
            <feColorMatrix values="0 0 0 0 0   0 0 0 0 0   0 0 0 0 0  0 0 0 0.440013112 0" type="matrix" in="shadowBlurOuter1"></feColorMatrix>
        </filter>
    </defs>
    <g id="airmail" stroke="none" stroke-width="1" fill="none" fill-rule="evenodd">
        <g id="Group-11" transform="translate(2, 1)">
            <g id="Rectangle">
                <use fill="black" fill-opacity="1" filter="url(#filter-2)" xlink:href="#path-1"></use>
                <use fill="#F6EAD8" fill-rule="evenodd" xlink:href="#path-1"></use>
            </g>
            <g id="Group-9" transform="translate(7.5, 11.5) rotate(90) translate(-7.5, -11.5)translate(2, 4)">
                <g id="Rectangle" transform="translate(0, 0)">
                    <use fill="black" fill-opacity="1" filter="url(#filter-4)" xlink:href="#path-3"></use>
                    <use fill="#EFF0F2" fill-rule="evenodd" xlink:href="#path-3"></use>
                </g>
                <g id="Group-10" transform="translate(5.3411, 7.7961) rotate(90) translate(-5.3411, -7.7961)translate(-0.4762, 4.9803)">
                    <path d="M9.09615385,4.05263158 L11.1346154,4.05263158 C11.4107578,4.05263158 11.6346154,4.2764892 11.6346154,4.55263158 L11.6346154,5.63157895 L11.6346154,5.63157895 L9.09615385,5.63157895 L9.09615385,4.05263158 Z" id="Rectangle" fill="#0B81C7"></path>
                    <line x1="3.27884615" y1="-0.988360324" x2="3.27884615" y2="5.14625506" id="Line-14" stroke="#979797" stroke-width="0.5" stroke-linecap="square" transform="translate(3.2788, 2.0789) rotate(-90) translate(-3.2788, -2.0789)"></line>
                    <line x1="3.17307692" y1="0.484817814" x2="3.17307692" y2="6.83097166" id="Line-14" stroke="#979797" stroke-width="0.5" stroke-linecap="square" transform="translate(3.1731, 3.6579) rotate(-90) translate(-3.1731, -3.6579)"></line>
                    <line x1="4.97115385" y1="-0.875" x2="4.97115385" y2="1.875" id="Line-14" stroke="#979797" stroke-width="0.5" stroke-linecap="square" transform="translate(4.9712, 0.5) rotate(-90) translate(-4.9712, -0.5)"></line>
                </g>
                <path d="M0,1.57894737 L0.346153846,1.57894737 C0.622296221,1.57894737 0.846153846,1.80280499 0.846153846,2.07894737 L0.846153846,3.15789474 L0.846153846,3.15789474 L0.5,3.15789474 C0.223857625,3.15789474 1.69088438e-17,2.93403711 0,2.65789474 L0,1.57894737 L0,1.57894737 Z" id="Rectangle" fill="#FE7272"></path>
                <path d="M0,3.94736842 L0.346153846,3.94736842 C0.622296221,3.94736842 0.846153846,4.17122605 0.846153846,4.44736842 L0.846153846,5.52631579 L0.846153846,5.52631579 L0.5,5.52631579 C0.223857625,5.52631579 1.69088438e-17,5.30245816 0,5.02631579 L0,3.94736842 L0,3.94736842 Z" id="Rectangle" fill="#0B81C7"></path>
                <path d="M0,6.31578947 L0.346153846,6.31578947 C0.622296221,6.31578947 0.846153846,6.5396471 0.846153846,6.81578947 L0.846153846,7.89473684 L0.846153846,7.89473684 L0.5,7.89473684 C0.223857625,7.89473684 1.69088438e-17,7.67087922 0,7.39473684 L0,6.31578947 L0,6.31578947 Z" id="Rectangle" fill="#FE7272"></path>
                <path d="M0,8.68421053 L0.346153846,8.68421053 C0.622296221,8.68421053 0.846153846,8.90806815 0.846153846,9.18421053 L0.846153846,10.2631579 L0.846153846,10.2631579 L0.5,10.2631579 C0.223857625,10.2631579 1.69088438e-17,10.0393003 0,9.76315789 L0,8.68421053 L0,8.68421053 Z" id="Rectangle" fill="#0B81C7"></path>
                <path d="M0,11.0526316 L0.346153846,11.0526316 C0.622296221,11.0526316 0.846153846,11.2764892 0.846153846,11.5526316 L0.846153846,12.6315789 L0.846153846,12.6315789 L0.5,12.6315789 C0.223857625,12.6315789 1.69088438e-17,12.4077213 0,12.1315789 L0,11.0526316 L0,11.0526316 Z" id="Rectangle" fill="#FE7272"></path>
                <path d="M0,13.4210526 L0.346153846,13.4210526 C0.622296221,13.4210526 0.846153846,13.6449103 0.846153846,13.9210526 L0.846153846,15 L0.846153846,15 L0.5,15 C0.223857625,15 1.69088438e-17,14.7761424 0,14.5 L0,13.4210526 L0,13.4210526 Z" id="Rectangle" fill="#0B81C7"></path>
                <path d="M10.1538462,5.2754016e-15 L10.5,5.2754016e-15 C10.7761424,5.22467506e-15 11,0.223857625 11,0.5 L11,1.57894737 L11,1.57894737 L10.6538462,1.57894737 C10.3777038,1.57894737 10.1538462,1.35508974 10.1538462,1.07894737 L10.1538462,5.2754016e-15 L10.1538462,5.2754016e-15 Z" id="Rectangle" fill="#0B81C7"></path>
                <path d="M10.1538462,2.36842105 L10.5,2.36842105 C10.7761424,2.36842105 11,2.59227868 11,2.86842105 L11,3.94736842 L11,3.94736842 L10.6538462,3.94736842 C10.3777038,3.94736842 10.1538462,3.7235108 10.1538462,3.44736842 L10.1538462,2.36842105 L10.1538462,2.36842105 Z" id="Rectangle" fill="#FE7272"></path>
                <path d="M10.1538462,4.73684211 L10.5,4.73684211 C10.7761424,4.73684211 11,4.96069973 11,5.23684211 L11,6.31578947 L11,6.31578947 L10.6538462,6.31578947 C10.3777038,6.31578947 10.1538462,6.09193185 10.1538462,5.81578947 L10.1538462,4.73684211 L10.1538462,4.73684211 Z" id="Rectangle" fill="#0B81C7"></path>
                <path d="M10.1538462,7.10526316 L10.5,7.10526316 C10.7761424,7.10526316 11,7.32912078 11,7.60526316 L11,8.68421053 L11,8.68421053 L10.6538462,8.68421053 C10.3777038,8.68421053 10.1538462,8.4603529 10.1538462,8.18421053 L10.1538462,7.10526316 L10.1538462,7.10526316 Z" id="Rectangle" fill="#FE7272"></path>
                <path d="M10.1538462,11.8421053 L10.5,11.8421053 C10.7761424,11.8421053 11,12.0659629 11,12.3421053 L11,13.4210526 L11,13.4210526 L10.6538462,13.4210526 C10.3777038,13.4210526 10.1538462,13.197195 10.1538462,12.9210526 L10.1538462,11.8421053 L10.1538462,11.8421053 Z" id="Rectangle" fill="#FE7272"></path>
                <path d="M10.1538462,9.47368421 L10.5,9.47368421 C10.7761424,9.47368421 11,9.69754184 11,9.97368421 L11,11.0526316 L11,11.0526316 L10.6538462,11.0526316 C10.3777038,11.0526316 10.1538462,10.828774 10.1538462,10.5526316 L10.1538462,9.47368421 L10.1538462,9.47368421 Z" id="Rectangle" fill="#0B81C7"></path>
                <path d="M2.19230769,14.2105263 L3.38461538,14.2105263 L3.38461538,14.2105263 L3.38461538,14.5 C3.38461538,14.7761424 3.16075776,15 2.88461538,15 L1.69230769,15 L1.69230769,15 L1.69230769,14.7105263 C1.69230769,14.4343839 1.91616532,14.2105263 2.19230769,14.2105263 Z" id="Rectangle" fill="#FE7272"></path>
                <path d="M4.73076923,14.2105263 L5.92307692,14.2105263 L5.92307692,14.2105263 L5.92307692,14.5 C5.92307692,14.7761424 5.6992193,15 5.42307692,15 L4.23076923,15 L4.23076923,15 L4.23076923,14.7105263 C4.23076923,14.4343839 4.45462686,14.2105263 4.73076923,14.2105263 Z" id="Rectangle" fill="#0B81C7"></path>
                <path d="M7.26923077,14.2105263 L8.46153846,14.2105263 L8.46153846,14.2105263 L8.46153846,14.5 C8.46153846,14.7761424 8.23768084,15 7.96153846,15 L6.76923077,15 L6.76923077,15 L6.76923077,14.7105263 C6.76923077,14.4343839 6.99308839,14.2105263 7.26923077,14.2105263 Z" id="Rectangle" fill="#FE7272"></path>
                <path d="M9.80769231,14.2105263 L11,14.2105263 L11,14.2105263 L11,14.5 C11,14.7761424 10.7761424,15 10.5,15 L9.30769231,15 L9.30769231,15 L9.30769231,14.7105263 C9.30769231,14.4343839 9.53154993,14.2105263 9.80769231,14.2105263 Z" id="Rectangle" fill="#0B81C7"></path>
                <path d="M0.5,4.65365784e-15 L1.69230769,4.65365784e-15 L1.69230769,4.65365784e-15 L1.69230769,0.289473684 C1.69230769,0.565616059 1.46845007,0.789473684 1.19230769,0.789473684 L0,0.789473684 L0,0.789473684 L0,0.5 C-3.38176876e-17,0.223857625 0.223857625,4.68747552e-15 0.5,4.65365784e-15 Z" id="Rectangle" fill="#0B81C7"></path>
                <path d="M3.03846154,4.80909378e-15 L4.23076923,4.80909378e-15 L4.23076923,4.80909378e-15 L4.23076923,0.289473684 C4.23076923,0.565616059 4.00691161,0.789473684 3.73076923,0.789473684 L2.53846154,0.789473684 L2.53846154,0.789473684 L2.53846154,0.5 C2.53846154,0.223857625 2.76231916,4.84291146e-15 3.03846154,4.80909378e-15 Z" id="Rectangle" fill="#FE7272"></path>
                <path d="M8.11538462,5.11996566e-15 L9.30769231,5.11996566e-15 L9.30769231,5.11996566e-15 L9.30769231,0.289473684 C9.30769231,0.565616059 9.08383468,0.789473684 8.80769231,0.789473684 L7.61538462,0.789473684 L7.61538462,0.789473684 L7.61538462,0.5 C7.61538462,0.223857625 7.83924224,5.15378334e-15 8.11538462,5.11996566e-15 Z" id="Rectangle" fill="#FE7272"></path>
                <path d="M5.57692308,4.96452972e-15 L6.76923077,4.96452972e-15 L6.76923077,4.96452972e-15 L6.76923077,0.289473684 C6.76923077,0.565616059 6.54537314,0.789473684 6.26923077,0.789473684 L5.07692308,0.789473684 L5.07692308,0.789473684 L5.07692308,0.5 C5.07692308,0.223857625 5.3007807,4.9983474e-15 5.57692308,4.96452972e-15 Z" id="Rectangle" fill="#0B81C7"></path>
            </g>
            <line x1="5" y1="2.5" x2="7" y2="2.5" id="Line-15" stroke="#979797" stroke-linecap="square"></line>
            <line x1="5" y1="4.5" x2="13" y2="4.5" id="Line-15" stroke="#979797" stroke-linecap="square"></line>
        </g>
    </g>
</svg>