<svg width="18px" height="18px" viewBox="0 0 18 18" version="1.1" xmlns="http://www.w3.org/2000/svg" xmlns:xlink="http://www.w3.org/1999/xlink">
    <title>bin</title>
    <g id="bin" stroke="none" fill="none" fill-rule="evenodd">
        <path d="M2,2.4766045 L15,2.4766045 C15.5522847,2.4766045 16,2.92431975 16,3.4766045 L16,16.5 C16,16.7761424 15.7761424,17 15.5,17 L1.5,17 C1.22385763,17 1,16.7761424 1,16.5 L1,3.4766045 C1,2.92431975 1.44771525,2.4766045 2,2.4766045 Z" id="Rectangle" fill="#93846B"></path>
        <path d="M2,4.89717042 L15,4.89717042 C15.5522847,4.89717042 16,5.34488567 16,5.89717042 L16,16.5 C16,16.7761424 15.7761424,17 15.5,17 L1.5,17 C1.22385763,17 1,16.7761424 1,16.5 L1,5.89717042 C1,5.34488567 1.44771525,4.89717042 2,4.89717042 Z" id="Rectangle" fill="#D4C1A2"></path>
        <rect id="Rectangle-2" fill="#BEB19C" x="4.75" y="4.89717042" width="7.5" height="7.26169775"></rect>
        <rect id="Rectangle" fill-opacity="0.397781906" fill="#7F7970" x="1" y="4.89717042" width="15" height="3.63084887"></rect>
        <polygon id="Rectangle-3" fill="#FAEFEF" points="5.41528541 3.26733726 14.0323533 1.79619325 14.6835339 5.37188137 6.06646608 6.84302538"></polygon>
        <rect id="Rectangle-3" fill="#908B82" x="4.96376259" y="1.30281604" width="7.5" height="4.84113183"></rect>
        <polygon id="Rectangle-3" fill="#F8F7F7" points="4.83265773 -4.42490489e-12 13.0549682 2.89758806 12.4637626 4.89717042 3.12255702 4.54917586"></polygon>
        <rect id="Rectangle" fill="#EFDDBF" x="1" y="3.68688746" width="15" height="3.63084887" rx="0.5"></rect>
    </g>
</svg>
