<svg width="18px" height="18px" viewBox="0 0 18 18" version="1.1" xmlns="http://www.w3.org/2000/svg" xmlns:xlink="http://www.w3.org/1999/xlink">
    <title>bin</title>
    <g id="bin" stroke="none" fill="none" fill-rule="evenodd" stroke-width="1">
        <g id="♺" transform="translate(1, 1)" fill="currentColor">
            <path d="M7.216,14.576 L7.216,13.056 L3.232,13.056 C2.608,13.056 2.08,12.512 2.08,11.872 C2.08,11.696 2.128,11.488 2.224,11.328 L3.568,8.992 L4.384,9.472 L3.84,7.008 L1.424,7.76 L2.256,8.24 L0.88,10.576 C0.608,11.04 0.464,11.552 0.464,12.032 C0.464,13.472 1.632,14.576 3.184,14.576 L7.216,14.576 Z M13.136,7.104 L11.824,7.856 L13.808,11.312 C13.904,11.488 13.952,11.664 13.952,11.872 C13.952,12.528 13.44,13.056 12.816,13.056 L10.144,13.056 L10.144,12.096 L8.272,13.808 L10.144,15.52 L10.144,14.576 L12.848,14.576 C14.4,14.576 15.552,13.488 15.552,12.032 C15.552,11.552 15.408,11.04 15.152,10.592 L13.136,7.104 Z M3.712,5.696 L5.024,6.464 L7.024,3.008 C7.232,2.656 7.6,2.448 8.032,2.448 C8.448,2.448 8.832,2.656 9.024,2.992 L10.368,5.328 L9.536,5.792 L11.968,6.56 L12.496,4.08 L11.68,4.56 L10.336,2.224 C9.824,1.328 8.976,0.8 8.032,0.8 C7.088,0.8 6.24,1.312 5.728,2.208 L3.712,5.696 Z" id="Shape" fill-rule="nonzero"></path>
        </g>
    </g>
</svg>
