<svg width="18px" height="18px" viewBox="0 0 18 18" version="1.1" xmlns="http://www.w3.org/2000/svg" xmlns:xlink="http://www.w3.org/1999/xlink">
    <title>bin</title>
    <g id="bin" stroke="none" fill="none" fill-rule="evenodd">
        <polygon id="Rectangle" fill="#CDC4B5" transform="translate(9.1799, 3.1668) scale(1, -1) translate(-9.1799, -3.1668)" points="0.882286549 2.53356643 16.4322865 2.53356643 17.4775969 3.8 3.52285703 3.8"></polygon>
        <path d="M1.98482963,4.23505805 L16.4624266,4.01540228 C17.0146477,4.00702392 17.4691035,4.44789564 17.4774818,5.00011684 C17.4775586,5.00517326 17.4775969,5.0102302 17.4775969,5.01528721 L17.4775969,14.8337183 L17.4775969,14.8337183 L15,17.25 L1.25,17.25 C1.11192881,17.25 1,17.1380712 1,17 L1,5.23494297 C1,4.68857359 1.43852312,4.24334668 1.98482963,4.23505805 Z" id="Rectangle" fill="#645E54"></path>
        <path d="M1.5,4 L14.5,4 C14.7761424,4 15,4.22385763 15,4.5 L15,17 L15,17 L1.25,17 C1.11192881,17 1,16.8880712 1,16.75 L1,4.5 C1,4.22385763 1.22385763,4 1.5,4 Z" id="Rectangle" fill="#E8D9BF"></path>
        <path d="M15.5957138,4.63296794 L17.4775969,5 L17.4775969,5 L17.4775969,17 L15.0766292,14.688976 C15.0276665,14.6418475 15,14.5768169 15,14.5088578 L15,5.1237213 C15,4.84757893 15.2238576,4.6237213 15.5,4.6237213 C15.5321276,4.6237213 15.5641804,4.62681783 15.5957138,4.63296794 Z" id="Rectangle" fill="#B8A88D" transform="translate(16.2388, 10.7584) scale(-1, 1) translate(-16.2388, -10.7584)"></path>
        <path d="M15.139942,2.53356643 L17.4775969,3.75 L17.4775969,6.5 L15.1966154,5.40346503 C15.161973,5.38681142 15.139942,5.35177583 15.139942,5.31333839 L15.139942,2.53356643 L15.139942,2.53356643 Z" id="Rectangle" fill="#DDCDB3" transform="translate(16.3088, 4.5168) scale(-1, 1) translate(-16.3088, -4.5168)"></path>
        <rect id="Rectangle" fill-opacity="0.289800044" fill="#7F7970" x="1" y="4.5" width="14" height="3"></rect>
        <path d="M1.13073266,3.75 L15.139942,3.75 L15.139942,3.75 L15.139942,6.5 L1.13073266,6.5 C0.992661472,6.5 0.880732659,6.38807119 0.880732659,6.25 L0.880732659,4 C0.880732659,3.86192881 0.992661472,3.75 1.13073266,3.75 Z" id="Rectangle" fill="#EFDDBF"></path>
        <g id="♺" stroke-width="1" transform="translate(5, 9)" fill="#28282D" fill-opacity="0.541794143">
            <path d="M2.68504772,5.61521739 L2.68504772,4.99565217 L1.10074231,4.99565217 C0.852598091,4.99565217 0.642629905,4.77391304 0.642629905,4.51304348 C0.642629905,4.44130435 0.661717922,4.35652174 0.699893955,4.29130435 L1.23435843,3.33913043 L1.55885472,3.53478261 L1.34252386,2.53043478 L0.381760339,2.83695652 L0.7126193,3.0326087 L0.16542948,3.98478261 C0.0572640509,4.17391304 0,4.3826087 0,4.57826087 C0,5.16521739 0.46447508,5.61521739 1.08165429,5.61521739 L2.68504772,5.61521739 Z M5.03923648,2.56956522 L4.51749735,2.87608696 L5.30646872,4.28478261 C5.34464475,4.35652174 5.36373277,4.42826087 5.36373277,4.51304348 C5.36373277,4.78043478 5.16012725,4.99565217 4.91198303,4.99565217 L3.84941676,4.99565217 L3.84941676,4.60434783 L3.10498409,5.30217391 L3.84941676,6 L3.84941676,5.61521739 L4.92470838,5.61521739 C5.54188759,5.61521739 6,5.17173913 6,4.57826087 C6,4.3826087 5.94273595,4.17391304 5.84093319,3.99130435 L5.03923648,2.56956522 Z M1.29162248,1.99565217 L1.81336161,2.30869565 L2.60869565,0.9 C2.69141039,0.756521739 2.83775186,0.67173913 3.00954401,0.67173913 C3.17497349,0.67173913 3.32767762,0.756521739 3.40402969,0.893478261 L3.93849417,1.84565217 L3.60763521,2.03478261 L4.5747614,2.34782609 L4.78472959,1.33695652 L4.4602333,1.5326087 L3.92576882,0.580434783 C3.72216331,0.215217391 3.38494168,0 3.00954401,0 C2.63414634,0 2.29692471,0.208695652 2.09331919,0.573913043 L1.29162248,1.99565217 Z" id="Shape" fill-rule="nonzero"></path>
        </g>
        <path d="M5.77740083,3 L13.2835246,3 L13.2835246,3 L12.3965519,3.36866807 C12.3843875,3.37372418 12.3713439,3.376327 12.3581705,3.376327 L4.85530277,3.376327 L4.85530277,3.376327 L5.738899,3.00770911 C5.75109736,3.00262021 5.76418353,3 5.77740083,3 Z" id="Rectangle-2" fill="#554F43"></path>
    </g>
</svg>
