<svg width="18px" height="18px" viewBox="0 0 18 18" version="1.1" xmlns="http://www.w3.org/2000/svg" xmlns:xlink="http://www.w3.org/1999/xlink">
    <defs>
        <linearGradient x1="50%" y1="69.0859921%" x2="50%" y2="100%" id="linearGradient-1">
            <stop stop-color="#F1F1F1" offset="0%"></stop>
            <stop stop-color="#EEEEEE" offset="100%"></stop>
        </linearGradient>
    </defs>
    <g id="calendar" stroke="none" stroke-width="1" fill="none" fill-rule="evenodd">
        <g id="Group-17" transform="translate(1, 1)">
            <path d="M2,0 L14,0 C15.1045695,0 16,0.8954305 16,2 L16,14 C16,15.1045695 15.1045695,16 14,16 L2,16 C0.8954305,16 0,15.1045695 0,14 L0,2 C0,0.8954305 0.8954305,2.22044605e-16 2,0 Z" id="Rectangle" fill="#8A85FF"></path>
            <path d="M0,3 L16,3 L16,14 C16,15.1045695 15.1045695,16 14,16 L2,16 C0.8954305,16 0,15.1045695 0,14 L0,3 L0,3 Z" id="Rectangle" fill="url(#linearGradient-1)"></path>
        </g>
        <text id="27" font-family="AlteHaasGrotesk, Alte Haas Grotesk" font-size="10" font-weight="normal" fill="#3B3B3B">
            <tspan x="4" y="14">27</tspan>
        </text>
    </g>
</svg>
