<svg width="18px" height="18px" viewBox="0 0 18 18" version="1.1" xmlns="http://www.w3.org/2000/svg" xmlns:xlink="http://www.w3.org/1999/xlink">
    <title>folder</title>
    <defs>
        <rect id="path-1" x="0" y="3" width="16" height="13" rx="2"></rect>
        <filter x="-9.4%" y="-11.5%" width="118.8%" height="123.1%" filterUnits="objectBoundingBox" id="filter-2">
            <feOffset dx="0" dy="0" in="SourceAlpha" result="shadowOffsetOuter1"></feOffset>
            <feGaussianBlur stdDeviation="0.5" in="shadowOffsetOuter1" result="shadowBlurOuter1"></feGaussianBlur>
            <feColorMatrix values="0 0 0 0 0   0 0 0 0 0   0 0 0 0 0  0 0 0 0.200529939 0" type="matrix" in="shadowBlurOuter1"></feColorMatrix>
        </filter>
    </defs>
    <g id="folder" stroke="none" stroke-width="1" fill="none" fill-rule="evenodd">
        <g id="Group-17" transform="translate(1, 1)">
            <path d="M2,0 C3.06624595,0 4.1324919,0 5.19873785,0 C6.50282426,0 5.90262015,1.69135889 6.67489876,1.69135889 C9.11659917,1.69135889 11.5582996,1.69135889 14,1.69135889 C15.1045695,1.69135889 16,2.58678939 16,3.69135889 L16,14 C16,15.1045695 15.1045695,16 14,16 L2,16 C0.8954305,16 0,15.1045695 0,14 L-4.4408921e-16,2 C-4.4408921e-16,0.8954305 0.8954305,2.22044605e-16 2,0 Z" id="Rectangle" fill="#C2BAA3"></path>
            <g id="Rectangle">
                <use fill="black" fill-opacity="1" filter="url(#filter-2)" xlink:href="#path-1"></use>
                <use fill="#F6EAD8" fill-rule="evenodd" xlink:href="#path-1"></use>
            </g>
        </g>
    </g>
</svg>
