<svg width="18px" height="18px" viewBox="0 0 18 18" version="1.1" xmlns="http://www.w3.org/2000/svg" xmlns:xlink="http://www.w3.org/1999/xlink">
    <title>folder</title>
    <defs>
        <rect id="path-1" x="1" y="4" width="16" height="13" rx="2"></rect>
        <filter x="-9.4%" y="-11.5%" width="118.8%" height="123.1%" filterUnits="objectBoundingBox" id="filter-2">
            <feOffset dx="0" dy="0" in="SourceAlpha" result="shadowOffsetOuter1"></feOffset>
            <feGaussianBlur stdDeviation="0.5" in="shadowOffsetOuter1" result="shadowBlurOuter1"></feGaussianBlur>
            <feColorMatrix values="0 0 0 0 0   0 0 0 0 0   0 0 0 0 0  0 0 0 0.200529939 0" type="matrix" in="shadowBlurOuter1"></feColorMatrix>
        </filter>
    </defs>
    <g id="folder" stroke="none" fill="none">
        <path d="M3,1 C4.06624595,1 5.1324919,1 6.19873785,1 C7.50282426,1 6.90262015,2.69135889 7.67489876,2.69135889 C10.1165992,2.69135889 12.5582996,2.69135889 15,2.69135889 C16.1045695,2.69135889 17,3.58678939 17,4.69135889 L17,15 C17,16.1045695 16.1045695,17 15,17 L3,17 C1.8954305,17 1,16.1045695 1,15 L1,3 C1,1.8954305 1.8954305,1 3,1 Z" id="Rectangle" fill="#C2BAA3" fill-rule="evenodd"></path>
        <g id="Rectangle">
            <use fill="black" fill-opacity="1" filter="url(#filter-2)" xlink:href="#path-1"></use>
            <use fill="#F6EAD8" fill-rule="evenodd" xlink:href="#path-1"></use>
        </g>
    </g>
</svg>
