<svg id="_1" fill="currentColor" height="512" viewBox="0 0 512 512" width="512" xmlns="http://www.w3.org/2000/svg" data-name="1"><path d="m353.892 402.838h32.631v32.631h-32.631z" transform="matrix(-1 0 0 -1 740.414 838.306)"/><path d="m386.522 402.838h32.631v32.631h-32.631z" transform="matrix(-1 0 0 -1 805.675 838.306)"/><path d="m419.153 370.207h32.631v32.631h-32.631z" transform="matrix(-1 0 0 -1 870.936 773.044)"/><path d="m419.153 337.576h32.631v32.631h-32.631z" transform="matrix(-1 0 0 -1 870.936 707.783)"/><path d="m419.153 304.946h32.631v32.631h-32.631z" transform="matrix(-1 0 0 -1 870.936 642.522)"/><path d="m419.153 272.315h32.631v32.631h-32.631z" transform="matrix(-1 0 0 -1 870.936 577.261)"/><path d="m419.153 239.685h32.631v32.631h-32.631z" transform="matrix(-1 0 0 -1 870.936 512)"/><path d="m419.153 207.054h32.631v32.631h-32.631z" transform="matrix(-1 0 0 -1 870.936 446.739)"/><path d="m419.153 174.424h32.631v32.631h-32.631z" transform="matrix(-1 0 0 -1 870.936 381.478)"/><path d="m386.522 141.793h32.631v32.631h-32.631z" transform="matrix(-1 0 0 -1 805.675 316.217)"/><path d="m92.847 76.532h32.631v32.631h-32.631z" transform="matrix(-1 0 0 -1 218.325 185.694)"/><path d="m125.478 76.532h32.631v32.631h-32.631z" transform="matrix(-1 0 0 -1 283.586 185.694)"/><path d="m158.108 76.532h32.631v32.631h-32.631z" transform="matrix(-1 0 0 -1 348.847 185.694)"/><path d="m190.739 76.532h32.631v32.631h-32.631z" transform="matrix(-1 0 0 -1 414.108 185.694)"/><path d="m223.369 402.838h32.631v32.631h-32.631z"/><path d="m190.739 402.838h32.631v32.631h-32.631z"/><path d="m158.108 402.838h32.631v32.631h-32.631z"/><path d="m125.478 402.838h32.631v32.631h-32.631z"/><path d="m321.261 402.838h32.631v32.631h-32.631z"/><path d="m353.892 141.793h32.631v32.631h-32.631z" transform="matrix(-1 0 0 -1 740.414 316.217)"/><path d="m321.261 141.793h32.631v32.631h-32.631z"/><path d="m288.631 402.838h32.631v32.631h-32.631z"/><path d="m288.631 141.793h32.631v32.631h-32.631z"/><path d="m256 402.838h32.631v32.631h-32.631z"/><path d="m92.847 402.838h32.631v32.631h-32.631z" transform="matrix(-1 0 0 -1 218.325 838.306)"/><path d="m60.217 370.207h32.631v32.631h-32.631z" transform="matrix(-1 0 0 -1 153.064 773.044)"/><path d="m60.217 337.576h32.631v32.631h-32.631z" transform="matrix(-1 0 0 -1 153.064 707.783)"/><path d="m60.217 304.946h32.631v32.631h-32.631z" transform="matrix(-1 0 0 -1 153.064 642.522)"/><path d="m60.217 272.315h32.631v32.631h-32.631z" transform="matrix(-1 0 0 -1 153.064 577.261)"/><path d="m60.217 239.685h32.631v32.631h-32.631z" transform="matrix(-1 0 0 -1 153.064 512)"/><path d="m60.217 207.054h32.631v32.631h-32.631z" transform="matrix(-1 0 0 -1 153.064 446.739)"/><path d="m60.217 174.424h32.631v32.631h-32.631z" transform="matrix(-1 0 0 -1 153.064 381.478)"/><path d="m60.217 141.793h32.631v32.631h-32.631z" transform="matrix(-1 0 0 -1 153.064 316.217)"/><path d="m60.217 109.162h32.631v32.631h-32.631z" transform="matrix(-1 0 0 -1 153.064 250.956)"/><path d="m223.369 109.162h32.631v32.631h-32.631z" transform="matrix(-1 0 0 -1 479.369 250.956)"/><path d="m256 141.793h32.631v32.631h-32.631z" transform="matrix(-1 0 0 -1 544.631 316.217)"/></svg>
