<svg width="16px" height="16px" viewBox="0 0 16 16" version="1.1" xmlns="http://www.w3.org/2000/svg" xmlns:xlink="http://www.w3.org/1999/xlink">
    <title>list-icon-craft</title>
    <g id="list-icon-craft" stroke="none" stroke-width="1" fill="none" fill-rule="evenodd">
        <rect id="Rectangle" fill="#325E46" x="0" y="0" width="16" height="16" rx="0.5"></rect>
        <line x1="14.4951613" y1="0.1" x2="14.4951613" y2="15.1" id="Line-6" stroke-opacity="0.530157343" stroke="#FFFFFF" stroke-width="0.25" stroke-linecap="square"></line>
        <line x1="11.4709677" y1="0.1" x2="11.4709677" y2="15.1" id="Line-6" stroke-opacity="0.530157343" stroke="#FFFFFF" stroke-width="0.25" stroke-linecap="square"></line>
        <line x1="8.44677419" y1="0.1" x2="8.44677419" y2="15.1" id="Line-6" stroke-opacity="0.530157343" stroke="#FFFFFF" stroke-width="0.25" stroke-linecap="square"></line>
        <line x1="5.42258065" y1="0.1" x2="5.42258065" y2="15.1" id="Line-6" stroke-opacity="0.530157343" stroke="#FFFFFF" stroke-width="0.25" stroke-linecap="square"></line>
        <line x1="2.3983871" y1="0.1" x2="2.3983871" y2="15.1" id="Line-6" stroke-opacity="0.530157343" stroke="#FFFFFF" stroke-width="0.25" stroke-linecap="square"></line>
        <g id="Group-12" transform="translate(0.1, 2.3984)" stroke="#FFFFFF" stroke-linecap="square" stroke-opacity="0.530157343" stroke-width="0.25">
            <line x1="7.19758065" y1="5.50403226" x2="7.19758065" y2="19.8991935" id="Line-6" transform="translate(7.1976, 12.7016) rotate(90) translate(-7.1976, -12.7016)"></line>
            <line x1="7.19758065" y1="2.47983871" x2="7.19758065" y2="16.875" id="Line-6" transform="translate(7.1976, 9.6774) rotate(90) translate(-7.1976, -9.6774)"></line>
            <line x1="7.19758065" y1="-0.544354839" x2="7.19758065" y2="13.8508065" id="Line-6" transform="translate(7.1976, 6.6532) rotate(90) translate(-7.1976, -6.6532)"></line>
            <line x1="7.19758065" y1="-3.56854839" x2="7.19758065" y2="10.8266129" id="Line-6" transform="translate(7.1976, 3.629) rotate(90) translate(-7.1976, -3.629)"></line>
            <line x1="7.19758065" y1="-6.59274194" x2="7.19758065" y2="7.80241935" id="Line-6" transform="translate(7.1976, 0.6048) rotate(90) translate(-7.1976, -0.6048)"></line>
        </g>
    </g>
</svg>
