<svg version="1.1" id="Layer_1" xmlns="http://www.w3.org/2000/svg" xmlns:xlink="http://www.w3.org/1999/xlink" x="0px" y="0px"
	 viewBox="0 0 512 512" style="enable-background:new 0 0 512 512;" xml:space="preserve" fill="currentColor">
<g>
	<g>
		<rect x="66.783" y="66.783" width="33.391" height="33.391"/>
	</g>
</g>
<g>
	<g>
		<rect x="166.957" width="178.087" height="33.391"/>
	</g>
</g>
<g>
	<g>
		<rect x="100.174" y="33.391" width="66.783" height="33.391"/>
	</g>
</g>
<g>
	<g>
		<rect x="33.391" y="100.174" width="33.391" height="66.783"/>
	</g>
</g>
<g>
	<g>
		<rect x="322.783" y="166.957" width="89.044" height="89.043"/>
	</g>
</g>
<g>
	<g>
		<g>
			<rect x="278.261" y="356.174" width="55.652" height="55.652"/>
			<path d="M478.609,166.957v-66.783h-33.391V66.783h-33.391V33.391h-66.783v33.391H166.957v33.391h-66.783v66.783H66.783v77.913
				H33.391v-77.913H0v178.087h33.391v66.783h33.391v33.391h33.391v33.391h66.783V512h178.087v-33.391h66.783v-33.391h33.391v-11.13
				v-22.261h33.391v-66.783H512V166.957H478.609z M66.783,311.652H33.391v-33.391h33.391V311.652z M367.304,411.826h-33.391v33.391
				h-55.652v-33.391H244.87v-55.652h33.391v-33.391h55.652v33.391h33.391V411.826z M445.217,256h-33.391v33.391h-89.044V256h-33.391
				v-89.043h33.391v-33.391h89.044v33.391h33.391V256z"/>
		</g>
	</g>
</g>
<g>
</g>
<g>
</g>
<g>
</g>
<g>
</g>
<g>
</g>
<g>
</g>
<g>
</g>
<g>
</g>
<g>
</g>
<g>
</g>
<g>
</g>
<g>
</g>
<g>
</g>
<g>
</g>
<g>
</g>
</svg>
