<svg id="_1" height="512" viewBox="0 0 512 512" width="512" xmlns="http://www.w3.org/2000/svg" fill="currentColor" stroke="currentColor" data-name="1"><path d="m370.156 353.892h32.631v32.631h-32.631z" transform="matrix(-1 0 0 -1 772.942 740.414)"/><path d="m402.786 386.522h32.631v32.631h-32.631z" transform="matrix(-1 0 0 -1 838.203 805.675)"/><path d="m435.417 288.631h32.631v32.631h-32.631z" transform="matrix(-1 0 0 -1 903.464 609.892)"/><path d="m402.786 321.261h32.631v32.631h-32.631z" transform="matrix(-1 0 0 -1 838.203 675.153)"/><path d="m435.417 256h32.631v32.631h-32.631z" transform="matrix(-1 0 0 -1 903.464 544.631)"/><path d="m43.953 256h32.631v32.631h-32.631z" transform="matrix(-1 0 0 -1 120.536 544.631)"/><path d="m402.786 223.369h32.631v32.631h-32.631z" transform="matrix(-1 0 0 -1 838.203 479.369)"/><path d="m337.525 190.739h32.631v32.631h-32.631z" transform="matrix(-1 0 0 -1 707.681 414.108)"/><path d="m370.213 190.739h32.631v32.631h-32.631z" transform="matrix(-1 0 0 -1 773.057 414.108)"/><path d="m206.9 92.847h32.631v32.631h-32.631z" transform="matrix(-1 0 0 -1 446.431 218.325)"/><path d="m239.531 353.892h32.631v32.631h-32.631z"/><path d="m272.264 353.892h32.631v32.631h-32.631z"/><path d="m206.9 353.892h32.631v32.631h-32.631z"/><path d="m174.27 353.892h32.631v32.631h-32.631z"/><path d="m141.639 353.892h32.631v32.631h-32.631z"/><path d="m337.525 353.892h32.631v32.631h-32.631z"/><path d="m337.525 158.108h32.631v32.631h-32.631z" transform="matrix(-1 0 0 -1 707.681 348.847)"/><path d="m304.895 125.478h32.631v32.631h-32.631z"/><path d="m272.264 92.847h32.631v32.631h-32.631z"/><path d="m109.037 353.892h32.631v32.631h-32.631z" transform="matrix(-1 0 0 -1 250.705 740.414)"/><path d="m76.378 321.261h32.631v32.631h-32.631z" transform="matrix(-1 0 0 -1 185.387 675.153)"/><path d="m43.953 288.631h32.631v32.631h-32.631z" transform="matrix(-1 0 0 -1 120.536 609.892)"/><path d="m76.378 223.369h32.631v32.631h-32.631z" transform="matrix(-1 0 0 -1 185.387 479.369)"/><path d="m206.9 223.369h32.631v32.631h-32.631z" transform="matrix(-1 0 0 -1 446.431 479.369)"/><path d="m109.009 190.739h32.631v32.631h-32.631z" transform="matrix(-1 0 0 -1 250.648 414.108)"/><path d="m141.668 158.108h32.631v32.631h-32.631z" transform="matrix(-1 0 0 -1 315.966 348.847)"/><path d="m174.27 190.739h32.631v32.631h-32.631z" transform="matrix(-1 0 0 -1 381.17 414.108)"/><path d="m109.037 125.478h32.631v32.631h-32.631z" transform="matrix(-1 0 0 -1 250.705 283.586)"/><path d="m239.517 223.369h32.631v32.631h-32.631z" transform="matrix(-1 0 0 -1 511.664 479.369)"/><path d="m239.517 256h32.631v32.631h-32.631z" transform="matrix(-1 0 0 -1 511.664 544.631)"/><path d="m272.264 256h32.631v32.631h-32.631z" transform="matrix(-1 0 0 -1 577.159 544.631)"/><path d="m272.264 288.631h32.631v32.631h-32.631z" transform="matrix(-1 0 0 -1 577.159 609.892)"/><path d="m304.895 288.631h32.631v32.631h-32.631z" transform="matrix(-1 0 0 -1 642.42 609.892)"/><path d="m337.525 321.261h32.631v32.631h-32.631z" transform="matrix(-1 0 0 -1 707.681 675.153)"/><path d="m304.895 321.261h32.631v32.631h-32.631z" transform="matrix(-1 0 0 -1 642.42 675.153)"/><path d="m174.284 158.108h32.631v32.631h-32.631z" transform="matrix(-1 0 0 -1 381.199 348.847)"/><path d="m206.886 190.739h32.631v32.631h-32.631z" transform="matrix(-1 0 0 -1 446.403 414.108)"/><path d="m141.654 125.478h32.631v32.631h-32.631z" transform="matrix(-1 0 0 -1 315.938 283.586)"/><path d="m76.392 92.847h32.631v32.631h-32.631z" transform="matrix(-1 0 0 -1 185.416 218.325)"/><path d="m239.531 92.847h32.631v32.631h-32.631z" transform="matrix(-1 0 0 -1 511.692 218.325)"/></svg>
