<svg version="1.1" id="Layer_1" xmlns="http://www.w3.org/2000/svg" xmlns:xlink="http://www.w3.org/1999/xlink" x="0px" y="0px"
	 viewBox="0 0 512 512" style="enable-background:new 0 0 512 512;" xml:space="preserve">
<polygon style="fill:#57A4FF;" points="512,300.522 0,300.522 0,422.957 77.913,422.957 77.913,512 434.087,512 434.087,422.957
	512,422.957 "/>
<polygon style="fill:#FFDA44;" points="434.076,178.094 434.076,178.087 400.684,178.087 400.684,178.094 400.684,178.087
	400.684,144.696 367.293,144.696 367.293,111.304 367.293,111.304 333.902,111.304 333.902,77.913 178.076,77.913 178.076,111.304
	144.685,111.304 144.685,144.696 111.293,144.696 111.293,178.087 77.913,178.094 77.913,322.789 434.087,322.789 434.087,178.094
	"/>
<polygon points="111.304,178.087 144.696,178.087 144.696,144.696 178.087,144.696 178.087,111.304 144.696,111.304
	111.304,111.304 111.304,144.696 "/>
<polygon points="333.913,89.043 333.913,77.913 333.913,0 300.522,0 300.522,77.913 211.478,77.913 211.478,0 178.087,0
	178.087,77.913 178.087,89.043 178.087,111.304 333.913,111.304 "/>
<polygon points="367.304,144.696 367.304,178.087 400.696,178.087 400.696,144.696 400.696,111.304 367.304,111.304
	333.913,111.304 333.913,144.696 "/>
<polygon points="512,211.478 512,178.087 422.957,178.087 422.957,178.087 400.696,178.087 400.696,300.522 111.304,300.522
	111.304,178.087 89.043,178.087 89.043,178.087 0,178.087 0,211.478 77.913,211.478 77.913,300.522 0,300.522 0,333.913
	512,333.913 512,300.522 434.087,300.522 434.087,211.478 "/>
<rect x="400.696" y="77.913" width="33.391" height="33.391"/>
<rect x="434.087" y="44.522" width="33.391" height="33.391"/>
<rect x="77.913" y="77.913" width="33.391" height="33.391"/>
<rect x="44.522" y="44.522" width="33.391" height="33.391"/>
<g>
	<rect x="33.391" y="389.565" style="fill:#9BFBFF;" width="278.261" height="33.391"/>
	<rect x="378.435" y="389.565" style="fill:#9BFBFF;" width="100.174" height="33.391"/>
	<rect x="77.913" y="478.609" style="fill:#9BFBFF;" width="356.174" height="33.391"/>
</g>
<g>
</g>
<g>
</g>
<g>
</g>
<g>
</g>
<g>
</g>
<g>
</g>
<g>
</g>
<g>
</g>
<g>
</g>
<g>
</g>
<g>
</g>
<g>
</g>
<g>
</g>
<g>
</g>
<g>
</g>
</svg>
