<svg height="20" viewBox="0 0 20 20" width="20" xmlns="http://www.w3.org/2000/svg"><g id="Search" fill="currentColor" fill-rule="evenodd"><path id="Rectangle" d="m6 2h6v2h-6z" transform="matrix(-1 0 0 1 18 0)"/><path id="Rectangle" d="m6 14h6v2h-6z" transform="matrix(-1 0 0 1 18 0)"/><path id="Rectangle" d="m2 6h2v6h-2z" transform="matrix(-1 0 0 1 6 0)"/><path id="Rectangle" d="m14 6h2v6h-2z" transform="matrix(-1 0 0 1 30 0)"/><path id="Rectangle" d="m4 4h2v2h-2z" transform="matrix(-1 0 0 1 10 0)"/><path id="Rectangle" d="m12 4h2v2h-2z" transform="matrix(-1 0 0 1 26 0)"/><path id="Rectangle" d="m4 12h2v2h-2z" transform="matrix(-1 0 0 1 10 0)"/><path id="Rectangle" d="m12 12h2v2h-2z" transform="matrix(-1 0 0 1 26 0)"/><path id="Rectangle" d="m14 14h2v2h-2z" transform="matrix(-1 0 0 1 30 0)"/><path id="Rectangle" d="m16 16h2v2h-2z" transform="matrix(-1 0 0 1 34 0)"/></g></svg>
