<svg fill="currentColor" version="1.1" id="Layer_1" xmlns="http://www.w3.org/2000/svg" xmlns:xlink="http://www.w3.org/1999/xlink" x="0px" y="0px"
	 viewBox="0 0 512 512" style="enable-background:new 0 0 512 512;" xml:space="preserve">
<g>
	<g>
		<polygon points="309.581,238.14 309.581,273.86 273.86,273.86 273.86,309.581 238.14,309.581 238.14,512 309.581,512
			309.581,381.023 345.302,381.023 345.302,345.302 381.023,345.302 381.023,309.581 512,309.581 512,238.14 		"/>
	</g>
</g>
<g>
	<g>
		<polygon points="297.674,119.07 297.674,154.791 226.233,154.791 226.233,190.512 190.512,190.512 190.512,226.233
			154.791,226.233 154.791,297.674 119.07,297.674 119.07,512 202.419,512 202.419,309.581 238.14,309.581 238.14,273.86
			273.86,273.86 273.86,238.14 309.581,238.14 309.581,202.419 512,202.419 512,119.07 		"/>
	</g>
</g>
<g>
	<g>
		<polygon points="285.767,0 285.767,35.721 214.326,35.721 214.326,71.442 142.884,71.442 142.884,107.163 107.163,107.163
			107.163,142.884 71.442,142.884 71.442,214.326 35.721,214.326 35.721,285.767 0,285.767 0,512 83.349,512 83.349,297.674
			119.07,297.674 119.07,226.233 154.791,226.233 154.791,190.512 190.512,190.512 190.512,154.791 226.233,154.791 226.233,119.07
			297.674,119.07 297.674,83.349 512,83.349 512,0 		"/>
	</g>
</g>
<g>
</g>
<g>
</g>
<g>
</g>
<g>
</g>
<g>
</g>
<g>
</g>
<g>
</g>
<g>
</g>
<g>
</g>
<g>
</g>
<g>
</g>
<g>
</g>
<g>
</g>
<g>
</g>
<g>
</g>
</svg>
