<svg width="14px" height="19px" viewBox="0 0 14 19" version="1.1" xmlns="http://www.w3.org/2000/svg" xmlns:xlink="http://www.w3.org/1999/xlink">
    <title>Group 3</title>
    <g id="Sunlist" stroke="none" stroke-width="1" fill="none" fill-rule="evenodd">
        <g id="list-dual" transform="translate(-14, -158)" stroke="#080808" stroke-width="0.75">
            <g id="Group-3" transform="translate(14, 158)">
                <rect id="Rectangle" x="0.375" y="0.375" width="13.25" height="18.25" rx="2"></rect>
                <line x1="8" y1="9.59095587" x2="11.4118905" y2="9.53056325" id="Path-3" stroke-linecap="round"></line>
                <path d="M3,9.3 L3.72350992,9.98234076 C3.76329264,10.0198598 3.82583488,10.0184652 3.86390566,9.97921017 L5.25,8.55 L5.25,8.55" id="Path-2" stroke-linecap="round"></path>
                <line x1="8" y1="4.59095587" x2="11.4118905" y2="4.53056325" id="Path-3" stroke-linecap="round"></line>
                <path d="M3,4.3 L3.72350992,4.98234076 C3.76329264,5.01985977 3.82583488,5.01846518 3.86390566,4.97921017 L5.25,3.55 L5.25,3.55" id="Path-2" stroke-linecap="round"></path>
                <path d="M3,14.25 L3.72350992,14.9323408 C3.76329264,14.9698598 3.82583488,14.9684652 3.86390566,14.9292102 L5.25,13.5 L5.25,13.5" id="Path-2" stroke-linecap="round"></path>
                <line x1="8" y1="14.5607596" x2="11.4118905" y2="14.5003669" id="Path-3" stroke-linecap="round"></line>
            </g>
        </g>
    </g>
</svg>
