<?xml version="1.0" encoding="UTF-8"?>
<svg width="512px" height="512px" viewBox="0 0 512 512" version="1.1" xmlns="http://www.w3.org/2000/svg" xmlns:xlink="http://www.w3.org/1999/xlink">
    <g id="icon" stroke="none" fill="none" fill-rule="evenodd">
        <rect id="Rectangle" fill="#F6EAD8" x="28" y="28" width="456" height="456" rx="54"></rect>
        <g id="Ad" stroke-width="1" transform="translate(89, 97)" fill="#3B3B3B">
            <path d="M172.288,237.712 C172.458667,238.394667 172.757333,239.248 173.184,240.272 C173.610667,241.296 173.952,242.362667 174.208,243.472 C174.464,244.581333 174.506667,245.648 174.336,246.672 C174.165333,247.696 173.568,248.464 172.544,248.976 C171.178667,249.829333 168.917333,250.170667 165.76,250 C162.602667,249.829333 160,249.744 157.952,249.744 L145.92,249.744 C144.554667,249.744 143.317333,249.786667 142.208,249.872 C141.098667,249.957333 140.032,249.829333 139.008,249.488 C137.130667,248.976 135.765333,247.952 134.912,246.416 C134.058667,245.050667 133.418667,243.6 132.992,242.064 C132.565333,240.528 132.010667,238.992 131.328,237.456 C130.474667,234.725333 129.578667,231.994667 128.64,229.264 C127.701333,226.533333 126.72,223.888 125.696,221.328 C125.184,219.792 124.714667,218.384 124.288,217.104 C123.861333,215.824 123.392,214.672 122.88,213.648 C122.368,212.624 121.6,211.728 120.576,210.96 C119.552,210.192 118.186667,209.637333 116.48,209.296 C115.626667,209.296 114.816,209.253333 114.048,209.168 C113.28,209.082667 112.469333,209.04 111.616,209.04 L71.168,209.04 C68.2666667,209.04 65.152,208.997333 61.824,208.912 C58.496,208.826667 55.8933333,209.466667 54.016,210.832 C52.6506667,211.856 51.712,213.221333 51.2,214.928 C50.688,216.634667 50.0906667,218.341333 49.408,220.048 C48.0426667,222.949333 46.8906667,225.978667 45.952,229.136 C45.0133333,232.293333 43.9466667,235.408 42.752,238.48 C42.0693333,240.186667 41.4293333,241.978667 40.832,243.856 C40.2346667,245.733333 39.2533333,247.184 37.888,248.208 C37.0346667,248.890667 35.7973333,249.36 34.176,249.616 C32.5546667,249.872 30.7626667,250 28.8,250 C26.8373333,250 24.832,249.957333 22.784,249.872 C20.736,249.786667 18.944,249.744 17.408,249.744 C15.1893333,249.744 12.5013333,249.786667 9.344,249.872 C6.18666667,249.957333 3.92533333,249.573333 2.56,248.72 C1.70666667,248.208 1.23733333,247.44 1.152,246.416 C1.06666667,245.392 1.152,244.325333 1.408,243.216 C1.664,242.106667 1.96266667,241.04 2.304,240.016 C2.64533333,238.992 2.98666667,238.138667 3.328,237.456 C5.03466667,233.530667 6.61333333,229.52 8.064,225.424 C9.51466667,221.328 11.008,217.317333 12.544,213.392 C13.2266667,212.026667 13.7386667,210.661333 14.08,209.296 C14.4213333,207.930667 14.9333333,206.565333 15.616,205.2 C16.9813333,201.616 18.3466667,197.946667 19.712,194.192 C21.0773333,190.437333 22.4426667,186.768 23.808,183.184 C25.1733333,179.770667 26.4533333,176.4 27.648,173.072 C28.8426667,169.744 30.1226667,166.373333 31.488,162.96 C35.4133333,153.573333 39.04,144.101333 42.368,134.544 C45.696,124.986667 49.3226667,115.514667 53.248,106.128 C53.5893333,105.274667 53.8453333,104.506667 54.016,103.824 C54.1866667,103.141333 54.4426667,102.373333 54.784,101.52 C56.1493333,97.936 57.5146667,94.2666667 58.88,90.512 C60.2453333,86.7573333 61.696,83.088 63.232,79.504 C64.0853333,77.6266667 64.8106667,75.7066667 65.408,73.744 C66.0053333,71.7813333 67.072,70.2026667 68.608,69.008 C69.4613333,68.496 70.5706667,68.0693333 71.936,67.728 C72.2773333,67.5573333 72.6186667,67.5146667 72.96,67.6 C73.3013333,67.6853333 73.6426667,67.6426667 73.984,67.472 L96.512,67.472 C98.3893333,67.472 100.309333,67.4293333 102.272,67.344 C104.234667,67.2586667 105.813333,67.6426667 107.008,68.496 C108.885333,69.52 110.122667,71.0133333 110.72,72.976 C111.317333,74.9386667 112.042667,76.944 112.896,78.992 C114.090667,81.8933333 115.2,84.752 116.224,87.568 C117.248,90.384 118.357333,93.2426667 119.552,96.144 C119.893333,97.168 120.234667,98.192 120.576,99.216 C120.917333,100.24 121.258667,101.264 121.6,102.288 C122.965333,105.701333 124.245333,109.072 125.44,112.4 C126.634667,115.728 127.914667,119.098667 129.28,122.512 C132.693333,131.045333 135.893333,139.664 138.88,148.368 C141.866667,157.072 145.152,165.690667 148.736,174.224 C149.077333,174.906667 149.290667,175.546667 149.376,176.144 C149.461333,176.741333 149.674667,177.381333 150.016,178.064 C151.04,180.794667 152.064,183.525333 153.088,186.256 C154.112,188.986667 155.136,191.717333 156.16,194.448 C156.842667,195.813333 157.354667,197.136 157.696,198.416 C158.037333,199.696 158.464,201.018667 158.976,202.384 C161.194667,207.845333 163.242667,213.306667 165.12,218.768 C166.997333,224.229333 169.045333,229.605333 171.264,234.896 C171.605333,235.408 171.776,235.877333 171.776,236.304 C171.776,236.730667 171.946667,237.2 172.288,237.712 Z M105.984,179.088 C108.202667,178.234667 109.226667,176.784 109.056,174.736 C108.885333,172.688 108.373333,170.725333 107.52,168.848 C107.178667,168.165333 107.008,167.525333 107.008,166.928 C107.008,166.330667 106.837333,165.690667 106.496,165.008 C104.277333,159.205333 102.229333,153.317333 100.352,147.344 C98.4746667,141.370667 96.3413333,135.397333 93.952,129.424 C93.6106667,128.570667 93.2693333,127.504 92.928,126.224 C92.5866667,124.944 92.16,123.749333 91.648,122.64 C91.136,121.530667 90.5386667,120.549333 89.856,119.696 C89.1733333,118.842667 88.32,118.416 87.296,118.416 C86.9546667,118.757333 86.6133333,119.013333 86.272,119.184 C85.9306667,119.354667 85.5893333,119.610667 85.248,119.952 C83.8826667,121.658667 82.9013333,123.706667 82.304,126.096 C81.7066667,128.485333 80.9813333,130.789333 80.128,133.008 C78.08,137.786667 76.2453333,142.650667 74.624,147.6 C73.0026667,152.549333 71.2533333,157.498667 69.376,162.448 C68.6933333,164.154667 68.096,165.818667 67.584,167.44 C67.072,169.061333 66.56,170.810667 66.048,172.688 C65.536,174.053333 65.6213333,175.589333 66.304,177.296 C67.1573333,178.490667 68.5653333,179.173333 70.528,179.344 C72.4906667,179.514667 74.496,179.6 76.544,179.6 L96,179.6 C97.536,179.6 99.2426667,179.6 101.12,179.6 C102.997333,179.6 104.618667,179.429333 105.984,179.088 Z" id="Shape" fill-rule="nonzero"></path>
            <path d="M318.208,235.408 C318.208,237.797333 318.208,240.144 318.208,242.448 C318.208,244.752 317.696,246.586667 316.672,247.952 C315.818667,248.805333 314.709333,249.36 313.344,249.616 C311.978667,249.872 310.442667,250 308.736,250 L294.656,250 C292.949333,250 291.370667,249.957333 289.92,249.872 C288.469333,249.786667 287.317333,249.402667 286.464,248.72 C285.269333,247.866667 284.586667,246.757333 284.416,245.392 C284.245333,244.026667 283.904,242.661333 283.392,241.296 C283.050667,240.954667 282.752,240.656 282.496,240.4 C282.24,240.144 281.941333,239.845333 281.6,239.504 C279.722667,239.504 278.357333,239.930667 277.504,240.784 C276.650667,241.637333 275.797333,242.490667 274.944,243.344 C273.749333,244.197333 272.64,244.922667 271.616,245.52 C270.592,246.117333 269.482667,246.842667 268.288,247.696 C267.605333,248.037333 266.88,248.378667 266.112,248.72 C265.344,249.061333 264.533333,249.402667 263.68,249.744 C261.290667,250.597333 258.730667,251.365333 256,252.048 C255.146667,252.389333 254.378667,252.56 253.696,252.56 C253.013333,252.56 252.330667,252.645333 251.648,252.816 C250.794667,252.816 250.069333,252.858667 249.472,252.944 C248.874667,253.029333 248.149333,253.072 247.296,253.072 L244.992,253.072 C243.968,253.413333 242.432,253.541333 240.384,253.456 C238.336,253.370667 236.885333,253.157333 236.032,252.816 C234.837333,252.474667 233.770667,252.346667 232.832,252.432 C231.893333,252.517333 230.912,252.389333 229.888,252.048 C227.84,251.365333 225.834667,250.725333 223.872,250.128 C221.909333,249.530667 219.989333,248.805333 218.112,247.952 C212.138667,245.392 206.805333,241.424 202.112,236.048 C197.418667,230.672 193.706667,224.997333 190.976,219.024 C190.122667,217.146667 189.44,215.312 188.928,213.52 C188.416,211.728 187.818667,209.893333 187.136,208.016 C186.965333,207.333333 186.88,206.693333 186.88,206.096 C186.88,205.498667 186.709333,204.773333 186.368,203.92 C186.026667,202.554667 185.728,201.061333 185.472,199.44 C185.216,197.818667 184.917333,196.154667 184.576,194.448 C184.405333,193.936 184.362667,193.338667 184.448,192.656 C184.533333,191.973333 184.490667,191.376 184.32,190.864 C184.32,190.010667 184.32,189.2 184.32,188.432 C184.32,187.664 184.234667,186.853333 184.064,186 C183.893333,185.146667 183.808,184.165333 183.808,183.056 C183.808,181.946667 183.893333,181.050667 184.064,180.368 C184.234667,179.514667 184.32,178.704 184.32,177.936 C184.32,177.168 184.32,176.357333 184.32,175.504 C184.490667,174.650667 184.533333,173.84 184.448,173.072 C184.362667,172.304 184.490667,171.493333 184.832,170.64 C185.173333,168.762667 185.472,166.970667 185.728,165.264 C185.984,163.557333 186.368,161.850667 186.88,160.144 C187.562667,158.096 188.16,156.133333 188.672,154.256 C189.184,152.378667 189.866667,150.501333 190.72,148.624 C193.109333,143.504 196.096,138.64 199.68,134.032 C200.021333,133.52 200.490667,133.050667 201.088,132.624 C201.685333,132.197333 202.154667,131.728 202.496,131.216 C203.178667,130.362667 203.861333,129.594667 204.544,128.912 C205.226667,128.229333 205.994667,127.546667 206.848,126.864 C207.530667,126.522667 208.128,126.053333 208.64,125.456 C209.152,124.858667 209.749333,124.389333 210.432,124.048 C214.698667,121.146667 219.648,118.757333 225.28,116.88 C226.474667,116.538667 227.712,116.282667 228.992,116.112 C230.272,115.941333 231.594667,115.685333 232.96,115.344 C234.154667,115.002667 235.690667,114.789333 237.568,114.704 C239.445333,114.618667 241.322667,114.576 243.2,114.576 C245.077333,114.576 246.912,114.661333 248.704,114.832 C250.496,115.002667 251.989333,115.258667 253.184,115.6 C255.744,116.453333 258.218667,117.221333 260.608,117.904 C262.997333,118.586667 265.216,119.525333 267.264,120.72 C268.458667,121.573333 269.568,122.384 270.592,123.152 C271.616,123.92 272.725333,124.730667 273.92,125.584 C274.602667,126.096 275.584,126.778667 276.864,127.632 C278.144,128.485333 279.381333,128.485333 280.576,127.632 C281.258667,127.290667 281.6,126.693333 281.6,125.84 C281.6,124.986667 281.770667,124.133333 282.112,123.28 L282.112,120.72 C282.282667,120.208 282.368,119.610667 282.368,118.928 C282.368,118.245333 282.368,117.562667 282.368,116.88 L282.368,82.064 C282.368,80.1866667 282.325333,78.096 282.24,75.792 C282.154667,73.488 282.538667,71.7386667 283.392,70.544 C284.074667,69.1786667 285.354667,68.3253333 287.232,67.984 C287.573333,67.8133333 287.914667,67.7706667 288.256,67.856 C288.597333,67.9413333 288.938667,67.8986667 289.28,67.728 L307.456,67.728 C309.504,67.728 311.381333,67.8133333 313.088,67.984 C314.794667,68.1546667 316.074667,68.8373333 316.928,70.032 C317.781333,71.3973333 318.208,73.1466667 318.208,75.28 C318.208,77.4133333 318.208,79.504 318.208,81.552 L318.208,235.408 Z M283.392,185.232 C283.562667,184.549333 283.605333,183.824 283.52,183.056 C283.434667,182.288 283.392,181.562667 283.392,180.88 C283.392,179.173333 283.306667,177.466667 283.136,175.76 C282.965333,174.053333 282.709333,172.517333 282.368,171.152 C282.026667,169.274667 281.728,167.568 281.472,166.032 C281.216,164.496 280.746667,163.045333 280.064,161.68 C277.674667,155.536 274.218667,150.672 269.696,147.088 C265.173333,143.504 258.645333,141.712 250.112,141.712 C249.088,141.712 247.722667,141.882667 246.016,142.224 C244.650667,142.565333 243.413333,142.864 242.304,143.12 C241.194667,143.376 240.128,143.76 239.104,144.272 C234.496,146.149333 230.912,149.050667 228.352,152.976 C225.792,156.901333 223.744,161.338667 222.208,166.288 C221.696,167.994667 221.354667,169.701333 221.184,171.408 C221.013333,173.114667 220.672,174.906667 220.16,176.784 L220.16,180.368 C219.818667,181.904 219.733333,183.994667 219.904,186.64 C220.074667,189.285333 220.330667,191.205333 220.672,192.4 C220.672,192.912 220.714667,193.381333 220.8,193.808 C220.885333,194.234667 220.928,194.618667 220.928,194.96 C221.269333,196.325333 221.568,197.605333 221.824,198.8 C222.08,199.994667 222.378667,201.274667 222.72,202.64 C225.621333,211.514667 230.570667,218.085333 237.568,222.352 C239.786667,223.888 242.858667,225.082667 246.784,225.936 C247.466667,226.106667 248.490667,226.192 249.856,226.192 C250.368,226.362667 251.178667,226.490667 252.288,226.576 C253.397333,226.661333 254.293333,226.618667 254.976,226.448 C256.341333,226.106667 257.706667,225.850667 259.072,225.68 C260.437333,225.509333 261.802667,225.168 263.168,224.656 C267.434667,222.778667 270.848,220.389333 273.408,217.488 C275.968,214.586667 278.186667,210.917333 280.064,206.48 C280.746667,204.944 281.258667,203.365333 281.6,201.744 C281.941333,200.122667 282.282667,198.373333 282.624,196.496 C282.794667,195.642667 282.837333,194.832 282.752,194.064 C282.666667,193.296 282.794667,192.485333 283.136,191.632 C283.306667,191.12 283.392,190.522667 283.392,189.84 C283.392,189.157333 283.392,188.389333 283.392,187.536 L283.392,185.232 Z" id="Shape" fill-rule="nonzero"></path>
        </g>
    </g>
</svg>
