<?xml version="1.0" encoding="UTF-8"?>
<svg width="18px" height="18px" viewBox="0 0 18 18" version="1.1" xmlns="http://www.w3.org/2000/svg" xmlns:xlink="http://www.w3.org/1999/xlink">
    <title>calendar</title>
    <defs>
        <linearGradient x1="50%" y1="69.0859921%" x2="50%" y2="100%" id="linearGradient-1">
            <stop stop-color="#F1F1F1" offset="0%"></stop>
            <stop stop-color="#EEEEEE" offset="100%"></stop>
        </linearGradient>
    </defs>
    <g id="calendar" stroke="none" fill="none" fill-rule="evenodd">
        <rect id="Rectangle" fill="url(#linearGradient-1)" x="1" y="1" width="16" height="16" rx="2"></rect>
        <g id="Ad" stroke-width="1" transform="translate(3, 3)" fill="#3B3B3B">
            <path d="M6.057,8.568 C6.063,8.592 6.0735,8.622 6.0885,8.658 C6.1035,8.694 6.1155,8.7315 6.1245,8.7705 C6.1335,8.8095 6.135,8.847 6.129,8.883 C6.123,8.919 6.102,8.946 6.066,8.964 C6.018,8.994 5.9385,9.006 5.8275,9 C5.7165,8.994 5.625,8.991 5.553,8.991 L5.13,8.991 C5.082,8.991 5.0385,8.9925 4.9995,8.9955 C4.9605,8.9985 4.923,8.994 4.887,8.982 C4.821,8.964 4.773,8.928 4.743,8.874 C4.713,8.826 4.6905,8.775 4.6755,8.721 C4.6605,8.667 4.641,8.613 4.617,8.559 C4.587,8.463 4.5555,8.367 4.5225,8.271 C4.4895,8.175 4.455,8.082 4.419,7.992 C4.401,7.938 4.3845,7.8885 4.3695,7.8435 C4.3545,7.7985 4.338,7.758 4.32,7.722 C4.302,7.686 4.275,7.6545 4.239,7.6275 C4.203,7.6005 4.155,7.581 4.095,7.569 C4.065,7.569 4.0365,7.5675 4.0095,7.5645 C3.9825,7.5615 3.954,7.56 3.924,7.56 L2.502,7.56 C2.4,7.56 2.2905,7.5585 2.1735,7.5555 C2.0565,7.5525 1.965,7.575 1.899,7.623 C1.851,7.659 1.818,7.707 1.8,7.767 C1.782,7.827 1.761,7.887 1.737,7.947 C1.689,8.049 1.6485,8.1555 1.6155,8.2665 C1.5825,8.3775 1.545,8.487 1.503,8.595 C1.479,8.655 1.4565,8.718 1.4355,8.784 C1.4145,8.85 1.38,8.901 1.332,8.937 C1.302,8.961 1.2585,8.9775 1.2015,8.9865 C1.1445,8.9955 1.0815,9 1.0125,9 C0.9435,9 0.873,8.9985 0.801,8.9955 C0.729,8.9925 0.666,8.991 0.612,8.991 C0.534,8.991 0.4395,8.9925 0.3285,8.9955 C0.2175,8.9985 0.138,8.985 0.09,8.955 C0.06,8.937 0.0435,8.91 0.0405,8.874 C0.0375,8.838 0.0405,8.8005 0.0495,8.7615 C0.0585,8.7225 0.069,8.685 0.081,8.649 C0.093,8.613 0.105,8.583 0.117,8.559 C0.177,8.421 0.2325,8.28 0.2835,8.136 C0.3345,7.992 0.387,7.851 0.441,7.713 C0.465,7.665 0.483,7.617 0.495,7.569 C0.507,7.521 0.525,7.473 0.549,7.425 C0.597,7.299 0.645,7.17 0.693,7.038 C0.741,6.906 0.789,6.777 0.837,6.651 C0.885,6.531 0.93,6.4125 0.972,6.2955 C1.014,6.1785 1.059,6.06 1.107,5.94 C1.245,5.61 1.3725,5.277 1.4895,4.941 C1.6065,4.605 1.734,4.272 1.872,3.942 C1.884,3.912 1.893,3.885 1.899,3.861 C1.905,3.837 1.914,3.81 1.926,3.78 C1.974,3.654 2.022,3.525 2.07,3.393 C2.118,3.261 2.169,3.132 2.223,3.006 C2.253,2.94 2.2785,2.8725 2.2995,2.8035 C2.3205,2.7345 2.358,2.679 2.412,2.637 C2.442,2.619 2.481,2.604 2.529,2.592 C2.541,2.586 2.553,2.5845 2.565,2.5875 C2.577,2.5905 2.589,2.589 2.601,2.583 L3.393,2.583 C3.459,2.583 3.5265,2.5815 3.5955,2.5785 C3.6645,2.5755 3.72,2.589 3.762,2.619 C3.828,2.655 3.8715,2.7075 3.8925,2.7765 C3.9135,2.8455 3.939,2.916 3.969,2.988 C4.011,3.09 4.05,3.1905 4.086,3.2895 C4.122,3.3885 4.161,3.489 4.203,3.591 C4.215,3.627 4.227,3.663 4.239,3.699 C4.251,3.735 4.263,3.771 4.275,3.807 C4.323,3.927 4.368,4.0455 4.41,4.1625 C4.452,4.2795 4.497,4.398 4.545,4.518 C4.665,4.818 4.7775,5.121 4.8825,5.427 C4.9875,5.733 5.103,6.036 5.229,6.336 C5.241,6.36 5.2485,6.3825 5.2515,6.4035 C5.2545,6.4245 5.262,6.447 5.274,6.471 C5.31,6.567 5.346,6.663 5.382,6.759 C5.418,6.855 5.454,6.951 5.49,7.047 C5.514,7.095 5.532,7.1415 5.544,7.1865 C5.556,7.2315 5.571,7.278 5.589,7.326 C5.667,7.518 5.739,7.71 5.805,7.902 C5.871,8.094 5.943,8.283 6.021,8.469 C6.033,8.487 6.039,8.5035 6.039,8.5185 C6.039,8.5335 6.045,8.55 6.057,8.568 Z M3.726,6.507 C3.804,6.477 3.84,6.426 3.834,6.354 C3.828,6.282 3.81,6.213 3.78,6.147 C3.768,6.123 3.762,6.1005 3.762,6.0795 C3.762,6.0585 3.756,6.036 3.744,6.012 C3.666,5.808 3.594,5.601 3.528,5.391 C3.462,5.181 3.387,4.971 3.303,4.761 C3.291,4.731 3.279,4.6935 3.267,4.6485 C3.255,4.6035 3.24,4.5615 3.222,4.5225 C3.204,4.4835 3.183,4.449 3.159,4.419 C3.135,4.389 3.105,4.374 3.069,4.374 C3.057,4.386 3.045,4.395 3.033,4.401 C3.021,4.407 3.009,4.416 2.997,4.428 C2.949,4.488 2.9145,4.56 2.8935,4.644 C2.8725,4.728 2.847,4.809 2.817,4.887 C2.745,5.055 2.6805,5.226 2.6235,5.4 C2.5665,5.574 2.505,5.748 2.439,5.922 C2.415,5.982 2.394,6.0405 2.376,6.0975 C2.358,6.1545 2.34,6.216 2.322,6.282 C2.304,6.33 2.307,6.384 2.331,6.444 C2.361,6.486 2.4105,6.51 2.4795,6.516 C2.5485,6.522 2.619,6.525 2.691,6.525 L3.375,6.525 C3.429,6.525 3.489,6.525 3.555,6.525 C3.621,6.525 3.678,6.519 3.726,6.507 Z" id="Shape" fill-rule="nonzero"></path>
            <path d="M11.187,8.487 C11.187,8.571 11.187,8.6535 11.187,8.7345 C11.187,8.8155 11.169,8.88 11.133,8.928 C11.103,8.958 11.064,8.9775 11.016,8.9865 C10.968,8.9955 10.914,9 10.854,9 L10.359,9 C10.299,9 10.2435,8.9985 10.1925,8.9955 C10.1415,8.9925 10.101,8.979 10.071,8.955 C10.029,8.925 10.005,8.886 9.999,8.838 C9.993,8.79 9.981,8.742 9.963,8.694 C9.951,8.682 9.9405,8.6715 9.9315,8.6625 C9.9225,8.6535 9.912,8.643 9.9,8.631 C9.834,8.631 9.786,8.646 9.756,8.676 C9.726,8.706 9.696,8.736 9.666,8.766 C9.624,8.796 9.585,8.8215 9.549,8.8425 C9.513,8.8635 9.474,8.889 9.432,8.919 C9.408,8.931 9.3825,8.943 9.3555,8.955 C9.3285,8.967 9.3,8.979 9.27,8.991 C9.186,9.021 9.096,9.048 9,9.072 C8.97,9.084 8.943,9.09 8.919,9.09 C8.895,9.09 8.871,9.093 8.847,9.099 C8.817,9.099 8.7915,9.1005 8.7705,9.1035 C8.7495,9.1065 8.724,9.108 8.694,9.108 L8.613,9.108 C8.577,9.12 8.523,9.1245 8.451,9.1215 C8.379,9.1185 8.328,9.111 8.298,9.099 C8.256,9.087 8.2185,9.0825 8.1855,9.0855 C8.1525,9.0885 8.118,9.084 8.082,9.072 C8.01,9.048 7.9395,9.0255 7.8705,9.0045 C7.8015,8.9835 7.734,8.958 7.668,8.928 C7.458,8.838 7.2705,8.6985 7.1055,8.5095 C6.9405,8.3205 6.81,8.121 6.714,7.911 C6.684,7.845 6.66,7.7805 6.642,7.7175 C6.624,7.6545 6.603,7.59 6.579,7.524 C6.573,7.5 6.57,7.4775 6.57,7.4565 C6.57,7.4355 6.564,7.41 6.552,7.38 C6.54,7.332 6.5295,7.2795 6.5205,7.2225 C6.5115,7.1655 6.501,7.107 6.489,7.047 C6.483,7.029 6.4815,7.008 6.4845,6.984 C6.4875,6.96 6.486,6.939 6.48,6.921 C6.48,6.891 6.48,6.8625 6.48,6.8355 C6.48,6.8085 6.477,6.78 6.471,6.75 C6.465,6.72 6.462,6.6855 6.462,6.6465 C6.462,6.6075 6.465,6.576 6.471,6.552 C6.477,6.522 6.48,6.4935 6.48,6.4665 C6.48,6.4395 6.48,6.411 6.48,6.381 C6.486,6.351 6.4875,6.3225 6.4845,6.2955 C6.4815,6.2685 6.486,6.24 6.498,6.21 C6.51,6.144 6.5205,6.081 6.5295,6.021 C6.5385,5.961 6.552,5.901 6.57,5.841 C6.594,5.769 6.615,5.7 6.633,5.634 C6.651,5.568 6.675,5.502 6.705,5.436 C6.789,5.256 6.894,5.085 7.02,4.923 C7.032,4.905 7.0485,4.8885 7.0695,4.8735 C7.0905,4.8585 7.107,4.842 7.119,4.824 C7.143,4.794 7.167,4.767 7.191,4.743 C7.215,4.719 7.242,4.695 7.272,4.671 C7.296,4.659 7.317,4.6425 7.335,4.6215 C7.353,4.6005 7.374,4.584 7.398,4.572 C7.548,4.47 7.722,4.386 7.92,4.32 C7.962,4.308 8.0055,4.299 8.0505,4.293 C8.0955,4.287 8.142,4.278 8.19,4.266 C8.232,4.254 8.286,4.2465 8.352,4.2435 C8.418,4.2405 8.484,4.239 8.55,4.239 C8.616,4.239 8.6805,4.242 8.7435,4.248 C8.8065,4.254 8.859,4.263 8.901,4.275 C8.991,4.305 9.078,4.332 9.162,4.356 C9.246,4.38 9.324,4.413 9.396,4.455 C9.438,4.485 9.477,4.5135 9.513,4.5405 C9.549,4.5675 9.588,4.596 9.63,4.626 C9.654,4.644 9.6885,4.668 9.7335,4.698 C9.7785,4.728 9.822,4.728 9.864,4.698 C9.888,4.686 9.9,4.665 9.9,4.635 C9.9,4.605 9.906,4.575 9.918,4.545 L9.918,4.455 C9.924,4.437 9.927,4.416 9.927,4.392 C9.927,4.368 9.927,4.344 9.927,4.32 L9.927,3.096 C9.927,3.03 9.9255,2.9565 9.9225,2.8755 C9.9195,2.7945 9.933,2.733 9.963,2.691 C9.987,2.643 10.032,2.613 10.098,2.601 C10.11,2.595 10.122,2.5935 10.134,2.5965 C10.146,2.5995 10.158,2.598 10.17,2.592 L10.809,2.592 C10.881,2.592 10.947,2.595 11.007,2.601 C11.067,2.607 11.112,2.631 11.142,2.673 C11.172,2.721 11.187,2.7825 11.187,2.8575 C11.187,2.9325 11.187,3.006 11.187,3.078 L11.187,8.487 Z M9.963,6.723 C9.969,6.699 9.9705,6.6735 9.9675,6.6465 C9.9645,6.6195 9.963,6.594 9.963,6.57 C9.963,6.51 9.96,6.45 9.954,6.39 C9.948,6.33 9.939,6.276 9.927,6.228 C9.915,6.162 9.9045,6.102 9.8955,6.048 C9.8865,5.994 9.87,5.943 9.846,5.895 C9.762,5.679 9.6405,5.508 9.4815,5.382 C9.3225,5.256 9.093,5.193 8.793,5.193 C8.757,5.193 8.709,5.199 8.649,5.211 C8.601,5.223 8.5575,5.2335 8.5185,5.2425 C8.4795,5.2515 8.442,5.265 8.406,5.283 C8.244,5.349 8.118,5.451 8.028,5.589 C7.938,5.727 7.866,5.883 7.812,6.057 C7.794,6.117 7.782,6.177 7.776,6.237 C7.77,6.297 7.758,6.36 7.74,6.426 L7.74,6.552 C7.728,6.606 7.725,6.6795 7.731,6.7725 C7.737,6.8655 7.746,6.933 7.758,6.975 C7.758,6.993 7.7595,7.0095 7.7625,7.0245 C7.7655,7.0395 7.767,7.053 7.767,7.065 C7.779,7.113 7.7895,7.158 7.7985,7.2 C7.8075,7.242 7.818,7.287 7.83,7.335 C7.932,7.647 8.106,7.878 8.352,8.028 C8.43,8.082 8.538,8.124 8.676,8.154 C8.7,8.16 8.736,8.163 8.784,8.163 C8.802,8.169 8.8305,8.1735 8.8695,8.1765 C8.9085,8.1795 8.94,8.178 8.964,8.172 C9.012,8.16 9.06,8.151 9.108,8.145 C9.156,8.139 9.204,8.127 9.252,8.109 C9.402,8.043 9.522,7.959 9.612,7.857 C9.702,7.755 9.78,7.626 9.846,7.47 C9.87,7.416 9.888,7.3605 9.9,7.3035 C9.912,7.2465 9.924,7.185 9.936,7.119 C9.942,7.089 9.9435,7.0605 9.9405,7.0335 C9.9375,7.0065 9.942,6.978 9.954,6.948 C9.96,6.93 9.963,6.909 9.963,6.885 C9.963,6.861 9.963,6.834 9.963,6.804 L9.963,6.723 Z" id="Shape" fill-rule="nonzero"></path>
        </g>
    </g>
</svg>